{"title":"Hulk(2003) Hindi Dubbed m-HD 480p MP3-=MTR=-","uid":6427240,"size":893745104,"categoryP":"video","categoryS":"movies","magnet":"?xt=urn:btih:13a6635d4c9c67511de64e82970011eb5dca66ca&amp;dn=Hulk%282003%29+Hindi+Dubbed+m-HD+480p+MP3-%3DMTR%3D-&amp;tr=udp%3A%2F%2Ftracker.openbittorrent.com%3A80&amp;tr=udp%3A%2F%2Fopen.demonii.com%3A1337&amp;tr=udp%3A%2F%2Ftracker.coppersurfer.tk%3A6969&amp;tr=udp%3A%2F%2Fexodus.desync.com%3A6969","seeders":0,"leechers":1,"uploader":"HDvideos","files":4,"time":1306520224,"description":"Hulk(2003) Hindi Dubbed m-HD 480p MP3-=MTR=-\n &lt;a href=&quot;\nhttp://img121.imageshack.us/img121/4194/280291811082.jpg&quot; rel=&quot;nofollow&quot; target=&quot;_NEW&quot;&gt;\nhttp://img121.imageshack.us/img121/4194/280291811082.jpg&lt;/a&gt;\n\nCheck out MY latest Uploads:\n &lt;a href=&quot;\nhttp://thepiratebay.se/user/HDvideos/0/7&quot; rel=&quot;nofollow&quot; target=&quot;_NEW&quot;&gt;\nhttp://thepiratebay.se/user/HDvideos/0/7&lt;/a&gt;\n\nStay updated with us....\n\nSeed after downloading....\n\nEnjoY with HDvideos..\n\nTorrent From Mastitorrents\n\nTeam Mastitorrents\n\nSay thanks if u like my posts\n\nGive ur valuable feedbacks\n\nQuality Uploads from HDvideos\n\nGeneral\nFormat                          : Matroska\nFile size                       : 849 MiB\nDuration                        : 2h 12mn\nOverall bit rate                : 895 Kbps\nEncoded date                    : UTC 2011-05-25 01:52:59\nWriting application             : mkvmerge v4.7.0 ('Just Like You Imagined') built on Apr 21 2011 01:13:14\nWriting library                 : libebml v1.2.0 + libmatroska v1.1.0\n\nVideo\nID                              : 1\nFormat                          : AVC\nFormat/Info                     : Advanced Video Codec\nFormat profile                  : &lt;a class=&quot;__cf_email__&quot; href=&quot;/cdn-cgi/l/email-protection&quot; data-cfemail=&quot;b9f1d0ded1f9f58a9788&quot;&gt;[email&amp;#160;protected]&lt;/a&gt;&lt;script cf-hash='f9e31' type=&quot;text/javascript&quot;&gt;\n/* &lt;![CDATA[ */!function(){try{var t=&quot;currentScript&quot;in document?document.currentScript:function(){for(var t=document.getElementsByTagName(&quot;script&quot;),e=t.length;e--;)if(t[e].getAttribute(&quot;cf-hash&quot;))return t[e]}();if(t&amp;&amp;t.previousSibling){var e,r,n,i,c=t.previousSibling,a=c.getAttribute(&quot;data-cfemail&quot;);if(a){for(e=&quot;&quot;,r=parseInt(a.substr(0,2),16),n=2;a.length-n;n+=2)i=parseInt(a.substr(n,2),16)^r,e+=String.fromCharCode(i);e=document.createTextNode(e),c.parentNode.replaceChild(e,c)}}}catch(u){}}();/* ]]&gt; */&lt;/script&gt;\nFormat settings, CABAC          : Yes\nFormat settings, ReFrames       : 5 frames\nMuxing mode                     : Header stripping\nCodec ID                        : V_MPEG4/ISO/AVC\nDuration                        : 2h 12mn\nBit rate                        : 670 Kbps\nWidth                           : 848 pixels\nHeight                          : 368 pixels\nDisplay aspect ratio            : 2.35:1\nFrame rate                      : 23.976 fps\nColor space                     : YUV\nChroma subsampling              : 4:2:0\nBit depth                       : 8 bits\nScan type                       : Progressive\nBits/(Pixel*Frame)              : 0.090\nStream size                     : 619 MiB (73%)\nWriting library                 : x264 core 114 r1924 08d04a4\nEncoding settings               : cabac=1 / ref=5 / deblock=1:-1:-1 / analyse=0x3:0x133 / me=umh / subme=8 / psy=1 / psy_rd=1.00:0.00 / mixed_ref=1 / me_range=24 / chroma_me=1 / trellis=2 / 8x8dct=1 / cqm=0 / deadzone=21,11 / fast_pskip=1 / chroma_qp_offset=-2 / threads=3 / sliced_threads=0 / nr=0 / decimate=1 / interlaced=0 / constrained_intra=0 / bframes=3 / b_pyramid=2 / b_adapt=2 / b_bias=0 / direct=3 / weightb=1 / open_gop=0 / weightp=2 / keyint=250 / keyint_min=23 / scenecut=40 / intra_refresh=0 / rc_lookahead=50 / rc=2pass / mbtree=1 / bitrate=670 / ratetol=1.0 / qcomp=0.60 / qpmin=10 / qpmax=69 / qpstep=4 / cplxblur=20.0 / qblur=0.5 / ip_ratio=1.40 / aq=1:1.00\n\nAudio\nID                              : 2\nFormat                          : MPEG Audio\nFormat version                  : Version 1\nFormat profile                  : Layer 3\nMuxing mode                     : Header stripping\nCodec ID                        : A_MPEG/L3\nCodec ID/Hint                   : MP3\nDuration                        : 1h 8mn\nBit rate mode                   : Constant\nBit rate                        : 224 Kbps\nChannel(s)                      : 2 channels\nSampling rate                   : 44.1 KHz\nCompression mode                : Lossy\nDelay relative to video         : 2s 600ms\nStream size                     : 109 MiB (13%)\nWriting library                 : LAME3.96r\nEncoding settings               : -m s -V 4 -q 2 -lowpass 20 -b 224\n\n","torrent":{"xt":"urn:btih:13a6635d4c9c67511de64e82970011eb5dca66ca","amp;dn":"Hulk%282003%29+Hindi+Dubbed+m-HD+480p+MP3-%3DMTR%3D-","amp;tr":["udp%3A%2F%2Ftracker.openbittorrent.com%3A80","udp%3A%2F%2Fopen.demonii.com%3A1337","udp%3A%2F%2Ftracker.coppersurfer.tk%3A6969","udp%3A%2F%2Fexodus.desync.com%3A6969"],"infoHash":"13a6635d4c9c67511de64e82970011eb5dca66ca","infoHashBuffer":{"type":"Buffer","data":[19,166,99,93,76,156,103,81,29,230,78,130,151,0,17,235,93,202,102,202]},"announce":[],"urlList":[]}}